<?xml version="1.0" encoding="UTF-8"?>
<svg id="Layer_1" data-name="Layer 1" xmlns="http://www.w3.org/2000/svg" viewBox="0 0 688.78 81.16">
  <defs>
    <style>
      .cls-1 {
        fill: #c8171e;
      }
    </style>
  </defs>
  <rect class="cls-1" x="375.74" width="26.72" height="81.16"/>
  <polygon class="cls-1" points="49.05 18.82 49.05 81.16 22.32 81.16 22.32 18.82 0 18.82 0 0 71.33 0 71.33 18.82 49.05 18.82"/>
  <polygon class="cls-1" points="467.59 18.82 467.59 81.16 440.86 81.16 440.86 18.82 418.54 18.82 418.54 0 489.87 0 489.87 18.82 467.59 18.82"/>
  <polygon class="cls-1" points="328.8 62.33 328.8 0 302.08 0 302.08 81.16 315.89 81.16 328.8 81.16 359.65 81.16 359.65 62.33 328.8 62.33"/>
  <polygon class="cls-1" points="130.54 0 130.54 31.17 114.14 31.17 114.14 0 87.41 0 87.41 81.16 114.14 81.16 114.14 49.99 130.54 49.99 130.54 81.16 157.26 81.16 157.26 0 130.54 0"/>
  <polygon class="cls-1" points="173.34 0 173.34 0 173.35 81.16 240.25 81.16 240.25 62.21 200.08 62.21 200.08 49.99 236.18 49.99 236.18 31.17 200.08 31.17 200.08 18.92 240.25 18.92 240.25 15.87 240.25 0 173.34 0"/>
  <polygon class="cls-1" points="505.95 0 505.95 0 505.96 81.16 572.85 81.16 572.85 66.16 572.85 62.21 532.69 62.21 532.69 49.99 568.79 49.99 568.79 31.17 532.69 31.17 532.69 18.92 572.85 18.92 572.85 15.87 572.85 0 505.95 0"/>
  <path class="cls-1" d="M663.17,81.16l-18.51-30.56c9.2-3.32,14.16-12.56,14.16-21.25,0-17.67-12.12-29.34-29.31-29.34h-40.58V81.16h26.73v-30.57s19.42,30.57,19.42,30.57h28.08Zm-30.4-53.49c0,6.08-3.83,9.55-10.15,9.55h-6.95V17.99h7.09c6.08,0,10.01,3.14,10.01,9.45v.23Z"/>
  <g>
    <polygon class="cls-1" points="667.47 1.73 663.43 1.73 663.43 0 673.53 0 673.53 1.73 669.53 1.73 669.53 13.75 667.47 13.75 667.47 1.73"/>
    <polygon class="cls-1" points="675.59 0 678.58 0 682.17 10.96 682.24 10.96 685.83 0 688.78 0 688.78 13.75 686.71 13.75 686.71 2.65 686.67 2.65 682.98 13.75 681.15 13.75 677.52 2.65 677.44 2.65 677.44 13.75 675.59 13.75 675.59 0"/>
  </g>
</svg>